<svg xmlns="http://www.w3.org/2000/svg" viewBox="0 0 600 450">
  <rect width="600" height="450" fill="#2a1f14"/>
  <g transform="translate(30 30)">
    <rect width="540" height="390" fill="#e8d9a8" stroke="#8b6a2a" stroke-width="2"/>
    <rect width="540" height="390" fill="#8b6a2a" opacity="0.06"/>
    <g stroke="#1e3a6a" stroke-width="2" fill="none">
      <rect x="60" y="40" width="50" height="260"/>
      <line x1="60"  y1="70"  x2="110" y2="70"/>
      <line x1="60"  y1="100" x2="110" y2="100"/>
      <line x1="60"  y1="130" x2="110" y2="130"/>
      <line x1="60"  y1="160" x2="110" y2="160"/>
      <line x1="60"  y1="190" x2="110" y2="190"/>
      <line x1="60"  y1="220" x2="110" y2="220"/>
      <line x1="60"  y1="250" x2="110" y2="250"/>
      <line x1="60"  y1="280" x2="110" y2="280"/>
      <line x1="110" y1="170" x2="460" y2="170"/>
      <line x1="110" y1="200" x2="460" y2="200"/>
      <path d="M 460 170 L 500 170 L 500 120 L 540 120"/>
      <line x1="460" y1="200" x2="500" y2="200" stroke-dasharray="4 3"/>
      <polygon points="200,175 215,170 215,200 200,195" fill="#d9b84a" opacity="0.8"/>
      <polygon points="280,175 295,170 295,200 280,195" fill="#d9b84a" opacity="0.8"/>
      <polygon points="360,175 375,170 375,200 360,195" fill="#d9b84a" opacity="0.8"/>
      <polygon points="440,175 455,170 455,200 440,195" fill="#d9b84a" opacity="0.8"/>
    </g>
    <text x="20"  y="170" font-family="Caveat, cursive" font-size="16" fill="#1e3a6a">ЛОМ-МАГ.</text>
    <text x="200" y="145" font-family="Caveat, cursive" font-size="16" fill="#1e3a6a">осн. труба →</text>
    <text x="450" y="110" font-family="Caveat, cursive" font-size="14" fill="#1e3a6a">3-й лаз</text>
    <text x="200" y="230" font-family="Caveat, cursive" font-size="13" fill="#5a2010" opacity="0.8">уплотнитель тугой</text>
    <text x="80"  y="340" font-family="Caveat, cursive" font-size="13" fill="#5a2010" opacity="0.8">капель с трассы</text>
    <ellipse cx="440" cy="60" rx="28" ry="22" fill="none" stroke="#6a4a20" stroke-width="1.5" opacity="0.5"/>
    <text x="300" y="25" text-anchor="middle" font-family="Courier Prime, monospace" font-size="11" fill="#2a2a28" opacity="0.7">СХЕМА. БЕТОННИК-7. ЛОМ-МАГИСТРАЛЬ. ОТ РУКИ.</text>
  </g>
  <text x="300" y="440" text-anchor="middle" font-family="monospace" font-size="11" fill="#8b5a2a" opacity="0.6">PLACEHOLDER · appendix-shahta</text>
</svg>
