<svg xmlns="http://www.w3.org/2000/svg" viewBox="0 0 1200 630">
  <defs>
    <linearGradient id="sky" x1="0" y1="0" x2="0" y2="1">
      <stop offset="0" stop-color="#2a1a0a"></stop>
      <stop offset="0.6" stop-color="#8b6a2a" stop-opacity="0.6"></stop>
      <stop offset="1" stop-color="#d9b84a" stop-opacity="0.5"></stop>
    </linearGradient>
    <radialGradient id="fog">
      <stop offset="0" stop-color="#d9b84a" stop-opacity="0.4"></stop>
      <stop offset="1" stop-color="#d9b84a" stop-opacity="0"></stop>
    </radialGradient>
  </defs>
  <rect width="1200" height="630" fill="url(#sky)"></rect>
  <ellipse cx="600" cy="500" rx="900" ry="260" fill="url(#fog)"></ellipse>
  <g opacity="0.55" fill="#1a0e06">
    <rect x="50" y="360" width="20" height="120"></rect>
    <rect x="120" y="320" width="15" height="160"></rect>
    <rect x="180" y="380" width="25" height="100"></rect>
    <rect x="950" y="340" width="18" height="140"></rect>
    <rect x="1020" y="370" width="14" height="110"></rect>
    <rect x="1080" y="320" width="22" height="160"></rect>
  </g>
  <g transform="translate(600 240) rotate(-3)">
    <rect x="-380" y="-140" width="760" height="340" fill="#e8d9a8" stroke="#2a2a28" stroke-width="3" opacity="0.95"></rect>
    <rect x="-370" y="-130" width="740" height="320" fill="none" stroke="#2a2a28" stroke-width="1" opacity="0.5" stroke-dasharray="4 3"></rect>
    <text x="-350" y="-95" font-family="Courier Prime, monospace" font-size="16" fill="#2a2a28" letter-spacing="2">УПРАВЛЕНИЕ УТИЛИЗАЦИИ БЕТОННИКА-7 · Ф-47/Р</text>
    <text x="0" y="40" text-anchor="middle" font-family="Special Elite, Russo One, serif" font-size="120" font-weight="bold" fill="#2a2a28" letter-spacing="12">РЖАВЬ</text>
    <text x="0" y="130" text-anchor="middle" font-family="Courier Prime, monospace" font-size="19" fill="#2a2a28" letter-spacing="6">БИОПАНК · 16 ГЛАВ · 90 ДНЕЙ ПУТИ</text>
    <text x="0" y="172" text-anchor="middle" font-family="Caveat, cursive" font-size="26" fill="#1e3a6a">«Партия принята. Подпись: Болотов Э.А.»</text>
    <g transform="translate(310 -100) rotate(8)">
      <rect x="-52" y="-22" width="104" height="44" fill="none" stroke="#8b2e1f" stroke-width="3.5"></rect>
      <text x="0" y="9" text-anchor="middle" font-family="Russo One" font-size="24" fill="#8b2e1f" letter-spacing="4">ДСП</text>
    </g>
  </g>
  <text x="600" y="600" text-anchor="middle" font-family="monospace" font-size="14" fill="#e8d9a8" opacity="0.6">againte.gratis/rzhav — PLACEHOLDER OG-COVER</text>
</svg>